<?xml version="1.0" encoding="UTF-8"?>
<svg xmlns="http://www.w3.org/2000/svg" viewBox="0 0 454 458">
  <!-- 
    长安 Logo - 矢量版
    从PNG描摹生成
    设计：开口佛珠手串 + 层叠山峦 + 山顶明珠
  -->

  <!-- 后山（最淡） -->
  <path d="M 197 64 L 165 72 L 154 77 L 154 81 L 183 72 L 202 69 L 205 66 L 203 64 Z" fill="#A8443C" opacity="0.2"/>
  <path d="M 240 65 L 240 68 L 269 74 L 284 80 L 289 79 L 289 77 L 286 75 L 264 68 L 246 65 Z" fill="#A8443C" opacity="0.2"/>
  <path d="M 220 57 L 213 64 L 214 70 L 218 74 L 225 74 L 230 70 L 230 62 L 224 57 Z" fill="#A8443C" opacity="0.2"/>
  <path d="M 135 81 L 132 82 L 127 89 L 128 93 L 133 97 L 137 97 L 141 95 L 143 92 L 143 87 L 141 84 L 135 81 Z" fill="#A8443C" opacity="0.2"/>
  <path d="M 303 81 L 299 85 L 299 91 L 302 95 L 310 95 L 314 91 L 313 84 L 310 81 Z" fill="#A8443C" opacity="0.2"/>
  <path d="M 200 180 L 208 168 L 216 175 L 223 162 L 230 172 L 237 164 L 245 176 L 252 168 L 260 180 Z" fill="#A8443C" opacity="0.2"/>

  <!-- 中山（半透明） -->
  <path d="M 134 215 L 126 220 L 115 236 L 108 248 L 108 250 L 111 252 L 147 251 L 164 246 L 164 241 L 151 224 L 145 218 L 139 215 Z" fill="#A8443C" opacity="0.45"/>
  <path d="M 196 65 L 180 68 L 161 74 L 154 77 L 154 81 L 182 72 L 201 69 L 204 67 L 203 65 Z" fill="#A8443C" opacity="0.45"/>
  <path d="M 240 65 L 240 68 L 242 69 L 272 75 L 284 80 L 289 79 L 289 77 L 284 74 L 265 68 L 248 65 Z" fill="#A8443C" opacity="0.45"/>
  <path d="M 220 57 L 217 58 L 213 63 L 214 71 L 220 75 L 226 74 L 230 70 L 230 61 L 225 57 Z" fill="#A8443C" opacity="0.45"/>
  <path d="M 134 81 L 128 86 L 127 89 L 128 94 L 133 97 L 138 97 L 143 92 L 142 85 L 136 81 Z" fill="#A8443C" opacity="0.45"/>
  <path d="M 302 81 L 299 84 L 299 91 L 302 95 L 311 95 L 314 92 L 314 85 L 310 81 Z" fill="#A8443C" opacity="0.45"/>
  <path d="M 180 215 L 192 190 L 205 208 L 220 178 L 232 200 L 246 175 L 260 200 L 270 185 L 282 215 Z" fill="#A8443C" opacity="0.45"/>

  <!-- 前山 + 佛珠圆环（实色） -->
  <!-- 主体：开口佛珠圆环 + 山 + 底部 -->
  <path d="M 119 97 L 104 108 L 84 129 L 69 150 L 53 185 L 46 212 L 44 231 L 45 263 L 52 296 L 62 321 L 79 348 L 92 364 L 113 383 L 130 395 L 157 409 L 180 416 L 201 420 L 216 421 L 242 420 L 263 416 L 286 409 L 314 395 L 340 375 L 357 357 L 376 329 L 387 306 L 394 283 L 398 258 L 397 212 L 395 209 L 391 187 L 380 161 L 366 138 L 357 126 L 340 109 L 324 97 Z" 
        fill="#A8443C"/>

  <!-- 左侧小山峰 -->
  <path d="M 133 216 L 126 221 L 115 237 L 113 243 L 116 247 L 152 246 L 154 243 L 157 242 L 157 240 L 160 239 L 160 237 L 149 222 L 140 216 Z" 
        fill="#A8443C"/>

  <!-- 顶部中间珠子 -->
  <path d="M 220 57 L 213 64 L 214 70 L 218 74 L 225 74 L 230 70 L 230 62 L 224 57 Z" 
        fill="#A8443C"/>

  <!-- 左上珠组 -->
  <path d="M 196 65 L 180 68 L 161 74 L 154 77 L 154 81 L 182 72 L 201 69 L 204 67 L 203 65 Z" 
        fill="#A8443C"/>

  <!-- 右上珠组 -->
  <path d="M 240 65 L 240 68 L 269 74 L 284 80 L 289 79 L 289 77 L 286 75 L 264 68 L 246 65 Z" 
        fill="#A8443C"/>

  <!-- 左侧珠子 -->
  <path d="M 135 81 L 132 82 L 127 89 L 128 93 L 133 97 L 137 97 L 141 95 L 143 92 L 143 87 L 141 84 L 135 81 Z" 
        fill="#A8443C"/>

  <!-- 右侧珠子 -->
  <path d="M 303 81 L 299 85 L 299 91 L 302 95 L 310 95 L 314 91 L 313 84 L 310 81 Z" 
        fill="#A8443C"/>

  <!-- 左侧装饰小形状 -->
  <path d="M 85 254 L 78 257 L 82 261 L 94 259 L 97 257 L 93 255 L 95 254 Z" 
        fill="#A8443C"/>

</svg>
