<?xml version="1.0" encoding="UTF-8"?>
<svg xmlns="http://www.w3.org/2000/svg" viewBox="0 0 454 458">
  <!-- 长安 Logo - 从PNG描摹生成 -->
  <!-- 后山（最淡） -->
  <path d="M 219.0 57.0 L 216.0 58.0 L 213.0 63.0 L 213.0 71.0 L 219.0 75.0 L 224.0 75.0 L 228.0 73.0 L 231.0 69.0 L 232.0 65.0 L 230.0 60.0 L 225.0 57.0 Z" fill="#A8443C" opacity="0.25"/>
  <!-- 中山（半透明） -->
  <path d="M 220.0 57.0 L 217.0 58.0 L 213.0 63.0 L 214.0 71.0 L 220.0 75.0 L 226.0 74.0 L 230.0 70.0 L 230.0 61.0 L 225.0 57.0 Z" fill="#A8443C" opacity="0.5"/>
  <!-- 前山 + 佛珠圆环（实色） -->
  <!-- Shape 1: 主体 -->
  <path d="M 119.0 97.0 L 104.0 108.0 L 84.0 129.0 L 69.0 150.0 L 53.0 185.0 L 46.0 212.0 L 44.0 231.0 L 45.0 263.0 L 52.0 296.0 L 62.0 321.0 L 79.0 348.0 L 92.0 364.0 L 113.0 383.0 L 130.0 395.0 L 157.0 409.0 L 180.0 416.0 L 201.0 420.0 L 216.0 421.0 L 242.0 420.0 L 263.0 416.0 L 286.0 409.0 L 314.0 395.0 L 340.0 375.0 L 357.0 357.0 L 376.0 329.0 L 387.0 306.0 L 394.0 283.0 L 398.0 258.0 L 397.0 212.0 L 395.0 209.0 L 391.0 187.0 L 380.0 161.0 L 366.0 138.0 L 357.0 126.0 L 340.0 109.0 L 324.0 97.0 Z" fill="#A8443C"/>
  <!-- Shape 2: 左侧小山 -->
  <path d="M 133.0 216.0 L 126.0 221.0 L 115.0 237.0 L 113.0 243.0 L 116.0 247.0 L 152.0 246.0 L 154.0 243.0 L 157.0 242.0 L 157.0 240.0 L 160.0 239.0 L 160.0 237.0 L 149.0 222.0 L 140.0 216.0 Z" fill="#A8443C"/>
  <!-- Shape 3: 顶部中珠 -->
  <path d="M 220.0 57.0 L 213.0 64.0 L 214.0 70.0 L 218.0 74.0 L 225.0 74.0 L 230.0 70.0 L 230.0 62.0 L 224.0 57.0 Z" fill="#A8443C"/>
  <!-- Shape 4: 左上珠组 -->
  <path d="M 196.0 65.0 L 180.0 68.0 L 161.0 74.0 L 154.0 77.0 L 154.0 81.0 L 182.0 72.0 L 201.0 69.0 L 204.0 67.0 L 203.0 65.0 Z" fill="#A8443C"/>
  <!-- Shape 5: 右上珠组 -->
  <path d="M 240.0 65.0 L 240.0 68.0 L 269.0 74.0 L 284.0 80.0 L 289.0 79.0 L 289.0 77.0 L 286.0 75.0 L 264.0 68.0 L 246.0 65.0 Z" fill="#A8443C"/>
  <!-- Shape 6: 左珠 -->
  <path d="M 135.0 81.0 L 132.0 82.0 L 127.0 89.0 L 128.0 93.0 L 133.0 97.0 L 137.0 97.0 L 141.0 95.0 L 143.0 92.0 L 143.0 87.0 L 141.0 84.0 L 135.0 81.0 Z" fill="#A8443C"/>
  <!-- Shape 7: 右珠 -->
  <path d="M 303.0 81.0 L 299.0 85.0 L 299.0 91.0 L 302.0 95.0 L 310.0 95.0 L 314.0 91.0 L 313.0 84.0 L 310.0 81.0 Z" fill="#A8443C"/>
  <!-- Shape 8: 左侧小形状 -->
  <path d="M 85.0 254.0 L 78.0 257.0 L 82.0 261.0 L 94.0 259.0 L 97.0 257.0 L 93.0 255.0 L 95.0 254.0 Z" fill="#A8443C"/>
</svg>
